<svg width="85" height="85" viewBox="0 0 85 85" fill="none" xmlns="http://www.w3.org/2000/svg">
<path fill-rule="evenodd" clip-rule="evenodd" d="M0 64.248L0 20.752C0 9.32211 9.32211 0 20.752 0L64.248 0C75.6779 0 85 9.32211 85 20.752L85 64.248C85 75.6779 75.6779 85 64.248 85L20.752 85C9.32211 85 0 75.6779 0 64.248ZM21.4889 19.1541C20.8697 19.1541 20.2759 19.4 19.838 19.8379C19.4002 20.2757 19.1542 20.8695 19.1542 21.4887C19.1542 22.1079 19.4002 22.7018 19.838 23.1396C20.2759 23.5774 20.8697 23.8234 21.4889 23.8234L57.8759 23.8234L19.8359 61.8604C19.6151 62.0763 19.4394 62.3338 19.3189 62.6181C19.1984 62.9023 19.1354 63.2077 19.1337 63.5164C19.132 63.8252 19.1916 64.1312 19.3089 64.4168C19.4263 64.7024 19.5992 64.9618 19.8176 65.1801C20.0359 65.3984 20.2954 65.5713 20.581 65.6886C20.8666 65.8059 21.1726 65.8654 21.4814 65.8636C21.7901 65.8619 22.0955 65.7989 22.3797 65.6783C22.6639 65.5577 22.9214 65.3819 23.1373 65.1611L61.1768 27.125L61.1768 63.5114C61.1819 64.1274 61.4303 64.7163 61.8677 65.15C62.305 65.5837 62.8961 65.8271 63.512 65.8271C64.128 65.8271 64.719 65.5837 65.1564 65.15C65.5938 64.7163 65.8421 64.1274 65.8473 63.5114L65.8473 21.4886C65.8471 20.8693 65.6009 20.2755 65.163 19.8378C64.725 19.4 64.1312 19.1541 63.5119 19.1541L21.4889 19.1541ZM21.4889 17.5977C20.9758 17.5943 20.4671 17.6925 19.9921 17.8865C19.517 18.0806 19.0851 18.3666 18.7211 18.7283C18.3571 19.0899 18.0682 19.52 17.871 19.9937C17.6739 20.4675 17.5724 20.9755 17.5724 21.4886C17.5724 22.0018 17.6739 22.5098 17.871 22.9836C18.0682 23.4573 18.3571 23.8874 18.7211 24.249C19.0851 24.6107 19.517 24.8967 19.9921 25.0908C20.4671 25.2848 20.9758 25.383 21.4889 25.3796L54.1183 25.3796L18.7354 60.7599C18.0057 61.4896 17.5958 62.4793 17.5958 63.5113C17.5959 64.5432 18.0059 65.5329 18.7356 66.2626C19.4653 66.9922 20.455 67.4021 21.487 67.4021C22.5189 67.402 23.5086 66.992 24.2383 66.2623L59.6207 30.8822L59.6207 63.5114C59.6274 64.5392 60.0404 65.5225 60.7695 66.2469C61.4986 66.9712 62.4846 67.3778 63.5124 67.3778C64.5401 67.3778 65.5261 66.9712 66.2552 66.2469C66.9843 65.5225 67.3973 64.5392 67.404 63.5114L67.404 21.4886C67.4036 20.4566 66.9934 19.467 66.2636 18.7374C65.5339 18.0078 64.5442 17.5978 63.5123 17.5977L21.4889 17.5977Z" fill="#000F22"/>
</svg>
