<svg width="121" height="81" viewBox="0 0 121 81" fill="none" xmlns="http://www.w3.org/2000/svg">
<path d="M81 76.0909V14.7273H89.2036V68.9026H120.273V76.0909H81Z" fill="white"/>
<path d="M49.0909 76.0909V14.7273H81V21.9156H55.7564V40.9383H78.8727V48.1266H55.7564V68.9026H81V76.0909H49.0909Z" fill="white"/>
<path d="M29.4546 81C23.2302 81 18.0432 80.025 13.8937 78.075C9.81819 76.125 6.66896 73.5 4.44598 70.2C2.22299 66.825 0.740995 63.1125 0 59.0625H10.448C11.2631 62.5125 13.1156 65.475 16.0055 67.95C18.8954 70.35 23.3784 71.55 29.4546 71.55C35.6789 71.55 40.3842 70.35 43.5705 67.95C46.8309 65.55 48.4611 62.5875 48.4611 59.0625C48.4611 56.1375 47.7942 53.8125 46.4604 52.0875C45.1266 50.2875 42.9036 48.7875 39.7914 47.5875C36.7533 46.3125 32.6038 45.075 27.3427 43.875C21.563 42.6 16.8206 41.1 13.1156 39.375C9.41064 37.65 6.66896 35.325 4.89057 32.4C3.11218 29.475 2.223 25.6125 2.223 20.8125C2.223 16.9125 3.29743 13.425 5.44631 10.35C7.6693 7.2 10.8185 4.6875 14.894 2.8125C18.9695 0.937499 23.823 0 29.4546 0C35.012 0 39.6432 0.937499 43.3482 2.8125C47.0532 4.6875 49.9431 7.2 52.0178 10.35C54.0926 13.425 79.1058 12.0545 79.7727 15.9545L57.6818 18.4091L50.3182 22.0909C49.0909 19.6364 43.3482 15 40.9029 12.825C38.5317 10.575 34.7156 9.45 29.4546 9.45C24.1194 9.45 19.9698 10.575 17.0058 12.825C14.116 15 12.671 17.6625 12.671 20.8125C12.671 24.9375 14.1901 27.975 17.2281 29.925C20.2662 31.8 25.1197 33.4875 31.7887 34.9875C36.6052 36.0375 40.7177 37.2375 44.1262 38.5875C47.6089 39.9375 50.4247 41.55 52.5736 43.425C54.7966 45.225 56.3897 47.4 57.353 49.95C58.3904 52.5 58.9091 55.5375 58.9091 59.0625C58.9091 63.1125 57.7235 66.825 55.3523 70.2C53.0552 73.5 49.7208 76.125 45.3489 78.075C40.977 80.025 35.6789 81 29.4546 81Z" fill="white"/>
</svg>
