<svg width="363" height="22" viewBox="0 0 363 22" fill="none" xmlns="http://www.w3.org/2000/svg">
<path d="M354.232 21.5018C352.956 21.5018 351.827 21.2073 350.845 20.6182C349.863 20.0291 349.097 19.1455 348.547 17.9673C348.017 16.7891 347.752 15.3164 347.752 13.5491V12.96C347.752 11.3106 348.027 9.91638 348.577 8.77747C349.146 7.63856 349.912 6.77456 350.874 6.18547C351.856 5.59638 352.975 5.30183 354.232 5.30183C355.489 5.30183 356.579 5.57674 357.502 6.12656C358.444 6.67638 359.141 7.43238 359.593 8.39456V0.589104H362.185V21.2073H359.77V18.2618C359.377 19.224 358.69 20.0095 357.708 20.6182C356.726 21.2073 355.567 21.5018 354.232 21.5018ZM354.821 19.2044C355.764 19.2044 356.588 19.008 357.295 18.6153C358.022 18.2029 358.582 17.6433 358.974 16.9364C359.387 16.2098 359.593 15.3753 359.593 14.4327V12.0764C359.593 11.232 359.387 10.476 358.974 9.80838C358.582 9.12111 358.022 8.5811 357.295 8.18838C356.588 7.79565 355.764 7.59929 354.821 7.59929C353.564 7.59929 352.504 8.07056 351.64 9.0131C350.776 9.93601 350.344 11.2517 350.344 12.96V13.5491C350.344 15.3949 350.776 16.7989 351.64 17.7611C352.504 18.7233 353.564 19.2044 354.821 19.2044Z" fill="white"/>
<path d="M338.177 21.5018C336.861 21.5018 335.624 21.2171 334.466 20.6476C333.327 20.0782 332.404 19.2044 331.697 18.0262C331.01 16.848 330.666 15.3556 330.666 13.5491V12.96C330.666 11.232 331 9.80838 331.668 8.6891C332.335 7.55019 333.219 6.70583 334.318 6.15601C335.418 5.58656 336.606 5.30183 337.882 5.30183C340.18 5.30183 341.957 5.9302 343.214 7.18692C344.47 8.44365 345.099 10.2207 345.099 12.5182V14.1676H333.258C333.258 15.3851 333.504 16.3571 333.994 17.0836C334.505 17.8102 335.133 18.3404 335.88 18.6742C336.645 18.9884 337.411 19.1455 338.177 19.1455C339.355 19.1455 340.258 18.9491 340.887 18.5564C341.535 18.1636 341.996 17.6236 342.271 16.9364H344.804C344.49 18.4287 343.714 19.5676 342.477 20.3531C341.26 21.1189 339.826 21.5018 338.177 21.5018ZM338.03 7.65819C337.225 7.65819 336.459 7.81529 335.732 8.12947C335.006 8.42401 334.407 8.89528 333.936 9.54328C333.484 10.1913 333.258 11.0258 333.258 12.0469H342.654C342.634 10.9669 342.409 10.1127 341.977 9.48438C341.564 8.83638 341.014 8.37492 340.327 8.10001C339.64 7.80547 338.874 7.65819 338.03 7.65819Z" fill="white"/>
<path d="M325.647 21.3545C324.547 21.3545 323.644 21.1876 322.937 20.8538C322.25 20.52 321.739 20.0193 321.406 19.3516C321.091 18.6644 320.934 17.8102 320.934 16.7891V7.89381H318.578V5.59635H320.934V2.06181H323.526V5.59635H327.709V7.89381H323.526V16.4945C323.526 17.3782 323.713 18.0164 324.086 18.4091C324.459 18.8018 325.176 18.9982 326.236 18.9982C326.825 18.9982 327.414 18.9687 328.003 18.9098V21.2073C327.63 21.2465 327.257 21.276 326.884 21.2956C326.511 21.3349 326.099 21.3545 325.647 21.3545Z" fill="white"/>
<path d="M312.317 21.2073V5.59636H314.909V21.2073H312.317ZM313.613 3.53454C313.103 3.53454 312.68 3.36764 312.347 3.03382C312.013 2.7 311.846 2.27782 311.846 1.76727C311.846 1.25673 312.013 0.834546 312.347 0.500728C312.68 0.16691 313.103 0 313.613 0C314.124 0 314.546 0.16691 314.88 0.500728C315.214 0.834546 315.38 1.25673 315.38 1.76727C315.38 2.27782 315.214 2.7 314.88 3.03382C314.546 3.36764 314.124 3.53454 313.613 3.53454Z" fill="white"/>
<path d="M285.962 21.2073V5.59638H288.377V8.54183C288.711 7.57965 289.28 6.80401 290.085 6.21492C290.91 5.6062 291.843 5.30183 292.884 5.30183C294.238 5.30183 295.279 5.59638 296.006 6.18547C296.732 6.75492 297.233 7.49129 297.508 8.39456C298.018 7.43238 298.666 6.67638 299.452 6.12656C300.257 5.57674 301.219 5.30183 302.338 5.30183C303.949 5.30183 305.205 5.79274 306.109 6.77456C307.012 7.73674 307.464 9.25856 307.464 11.34V21.2073H304.872V11.9291C304.872 10.3778 304.597 9.27819 304.047 8.63019C303.517 7.98219 302.702 7.65819 301.602 7.65819C300.974 7.65819 300.385 7.83492 299.835 8.18837C299.285 8.52219 298.843 9.0131 298.509 9.6611C298.176 10.2895 298.009 11.0455 298.009 11.9291V21.2073H295.417V11.9291C295.417 10.3778 295.142 9.27819 294.592 8.63019C294.042 7.98219 293.227 7.65819 292.147 7.65819C291.519 7.65819 290.93 7.83492 290.38 8.18837C289.83 8.52219 289.388 9.0131 289.054 9.6611C288.721 10.2895 288.554 11.0455 288.554 11.9291V21.2073H285.962Z" fill="white"/>
<path d="M278.375 21.2073V5.59636H280.967V21.2073H278.375ZM279.671 3.53454C279.161 3.53454 278.739 3.36764 278.405 3.03382C278.071 2.7 277.904 2.27782 277.904 1.76727C277.904 1.25673 278.071 0.834546 278.405 0.500728C278.739 0.16691 279.161 0 279.671 0C280.182 0 280.604 0.16691 280.938 0.500728C281.272 0.834546 281.439 1.25673 281.439 1.76727C281.439 2.27782 281.272 2.7 280.938 3.03382C280.604 3.36764 280.182 3.53454 279.671 3.53454Z" fill="white"/>
<path d="M261.872 21.2073V0.589104H264.64V18.792H275.126V21.2073H261.872Z" fill="white"/>
<path d="M243.749 21.5018C242.708 21.5018 241.805 21.384 241.039 21.1484C240.273 20.8931 239.635 20.5593 239.124 20.1469C238.614 19.7346 238.201 19.2535 237.887 18.7036C237.593 18.1342 237.387 17.5451 237.269 16.9364H239.861C239.998 17.5647 240.361 18.1146 240.951 18.5858C241.559 19.0375 242.492 19.2633 243.749 19.2633C245.202 19.2633 246.213 19.0375 246.783 18.5858C247.352 18.1146 247.637 17.5647 247.637 16.9364C247.637 16.5044 247.509 16.1313 247.254 15.8171C247.018 15.4833 246.586 15.1986 245.958 14.9629C245.349 14.7273 244.475 14.5309 243.336 14.3738C242.472 14.256 241.697 14.0891 241.009 13.8731C240.322 13.6375 239.733 13.3331 239.242 12.96C238.751 12.5869 238.368 12.1353 238.093 11.6051C237.838 11.0749 237.711 10.4466 237.711 9.72001C237.711 8.93456 237.936 8.20801 238.388 7.54038C238.84 6.87274 239.517 6.33274 240.42 5.92038C241.324 5.50801 242.433 5.30183 243.749 5.30183C244.986 5.30183 246.007 5.51783 246.812 5.94983C247.637 6.3622 248.275 6.91201 248.727 7.59928C249.178 8.28656 249.483 9.04256 249.64 9.86729H247.048C246.891 9.18001 246.557 8.62037 246.046 8.18837C245.536 7.75638 244.77 7.54038 243.749 7.54038C242.472 7.54038 241.579 7.75638 241.068 8.18837C240.558 8.60074 240.303 9.11128 240.303 9.72001C240.303 10.4269 240.577 10.9571 241.127 11.3106C241.697 11.664 242.728 11.9389 244.22 12.1353C245.182 12.2531 246.036 12.4298 246.783 12.6655C247.529 12.8815 248.157 13.1858 248.668 13.5786C249.178 13.9516 249.561 14.4131 249.816 14.9629C250.091 15.5127 250.229 16.1706 250.229 16.9364C250.229 17.7611 249.993 18.5171 249.522 19.2044C249.051 19.8916 248.334 20.4513 247.372 20.8833C246.429 21.2956 245.221 21.5018 243.749 21.5018Z" fill="white"/>
<path d="M228.287 21.5018C226.952 21.5018 225.744 21.2171 224.664 20.6476C223.604 20.0586 222.76 19.1749 222.131 17.9967C221.523 16.8186 221.218 15.336 221.218 13.5491V12.96C221.218 11.2713 221.552 9.85747 222.22 8.71856C222.887 7.57965 223.761 6.72547 224.841 6.15601C225.921 5.58656 227.07 5.30183 228.287 5.30183C229.524 5.30183 230.585 5.52765 231.468 5.97928C232.372 6.41128 233.098 7.01019 233.648 7.77601C234.198 8.52219 234.571 9.36656 234.767 10.3091H232.116C231.802 9.56292 231.36 8.93456 230.791 8.42401C230.241 7.91347 229.407 7.65819 228.287 7.65819C227.522 7.65819 226.805 7.84474 226.137 8.21783C225.47 8.57129 224.92 9.14074 224.488 9.92619C224.075 10.692 223.869 11.7033 223.869 12.96V13.5491C223.869 14.8844 224.075 15.9644 224.488 16.7891C224.92 17.6138 225.47 18.2127 226.137 18.5858C226.805 18.9589 227.522 19.1455 228.287 19.1455C229.25 19.1455 230.055 18.9098 230.703 18.4386C231.37 17.9673 231.842 17.3193 232.116 16.4946H234.767C234.532 17.5156 234.11 18.4091 233.501 19.1749C232.892 19.9211 232.146 20.5004 231.262 20.9127C230.379 21.3055 229.387 21.5018 228.287 21.5018Z" fill="white"/>
<path d="M214.663 21.2073V5.59636H217.255V21.2073H214.663ZM215.959 3.53454C215.448 3.53454 215.026 3.36764 214.692 3.03382C214.358 2.7 214.191 2.27782 214.191 1.76727C214.191 1.25673 214.358 0.834546 214.692 0.500728C215.026 0.16691 215.448 0 215.959 0C216.469 0 216.891 0.16691 217.225 0.500728C217.559 0.834546 217.726 1.25673 217.726 1.76727C217.726 2.27782 217.559 2.7 217.225 3.03382C216.891 3.36764 216.469 3.53454 215.959 3.53454Z" fill="white"/>
<path d="M196.246 21.2073V5.59638H198.661V8.54183C199.015 7.67783 199.633 6.92183 200.517 6.27383C201.42 5.62583 202.579 5.30183 203.993 5.30183C205.956 5.30183 207.409 5.83201 208.352 6.89238C209.314 7.9331 209.795 9.46474 209.795 11.4873V21.2073H207.203V12.0764C207.203 10.6233 206.899 9.52365 206.29 8.77747C205.681 8.03129 204.66 7.65819 203.227 7.65819C202.206 7.65819 201.371 7.87419 200.723 8.30619C200.075 8.73819 199.594 9.28801 199.28 9.95565C198.985 10.6233 198.838 11.3302 198.838 12.0764V21.2073H196.246Z" fill="white"/>
<path d="M185.065 21.5018C183.75 21.5018 182.512 21.2171 181.354 20.6476C180.215 20.0586 179.292 19.1749 178.585 17.9967C177.898 16.8186 177.554 15.336 177.554 13.5491V12.96C177.554 11.2713 177.898 9.85747 178.585 8.71856C179.292 7.57965 180.215 6.72547 181.354 6.15601C182.512 5.58656 183.75 5.30183 185.065 5.30183C186.4 5.30183 187.638 5.58656 188.776 6.15601C189.915 6.72547 190.828 7.57965 191.516 8.71856C192.223 9.85747 192.576 11.2713 192.576 12.96V13.5491C192.576 15.336 192.223 16.8186 191.516 17.9967C190.828 19.1749 189.915 20.0586 188.776 20.6476C187.638 21.2171 186.4 21.5018 185.065 21.5018ZM185.065 19.1455C185.87 19.1455 186.636 18.9687 187.363 18.6153C188.109 18.2422 188.718 17.6433 189.189 16.8186C189.68 15.9938 189.925 14.904 189.925 13.5491V12.96C189.925 11.7033 189.68 10.692 189.189 9.92619C188.718 9.14074 188.109 8.57129 187.363 8.21783C186.636 7.84474 185.87 7.65819 185.065 7.65819C184.28 7.65819 183.514 7.84474 182.768 8.21783C182.022 8.57129 181.403 9.14074 180.912 9.92619C180.441 10.692 180.205 11.7033 180.205 12.96V13.5491C180.205 14.904 180.441 15.9938 180.912 16.8186C181.403 17.6433 182.022 18.2422 182.768 18.6153C183.514 18.9687 184.28 19.1455 185.065 19.1455Z" fill="white"/>
<path d="M167.396 21.2073V5.59638H169.811V8.54183C170.047 7.91347 170.371 7.36365 170.783 6.89238C171.195 6.40147 171.696 6.01856 172.285 5.74365C172.894 5.4491 173.571 5.30183 174.317 5.30183C174.71 5.30183 175.024 5.32147 175.26 5.36074C175.515 5.40001 175.741 5.4491 175.938 5.50801V7.92328C175.682 7.8251 175.427 7.75638 175.172 7.7171C174.936 7.67783 174.602 7.65819 174.17 7.65819C173.385 7.65819 172.678 7.84474 172.05 8.21783C171.421 8.59092 170.92 9.11129 170.547 9.77892C170.174 10.4269 169.988 11.1927 169.988 12.0764V21.2073H167.396Z" fill="white"/>
<path d="M161.346 21.3545C160.247 21.3545 159.344 21.1876 158.637 20.8538C157.949 20.52 157.439 20.0193 157.105 19.3516C156.791 18.6644 156.634 17.8102 156.634 16.7891V7.89381H154.277V5.59635H156.634V2.06181H159.226V5.59635H163.408V7.89381H159.226V16.4945C159.226 17.3782 159.412 18.0164 159.785 18.4091C160.158 18.8018 160.875 18.9982 161.936 18.9982C162.525 18.9982 163.114 18.9687 163.703 18.9098V21.2073C163.33 21.2465 162.957 21.276 162.584 21.2956C162.21 21.3349 161.798 21.3545 161.346 21.3545Z" fill="white"/>
<path d="M145.59 21.5018C144.255 21.5018 143.047 21.2171 141.967 20.6476C140.907 20.0586 140.063 19.1749 139.434 17.9967C138.826 16.8186 138.521 15.336 138.521 13.5491V12.96C138.521 11.2713 138.855 9.85747 139.523 8.71856C140.19 7.57965 141.064 6.72547 142.144 6.15601C143.224 5.58656 144.373 5.30183 145.59 5.30183C146.827 5.30183 147.888 5.52765 148.771 5.97928C149.675 6.41128 150.401 7.01019 150.951 7.77601C151.501 8.52219 151.874 9.36656 152.07 10.3091H149.419C149.105 9.56292 148.663 8.93456 148.094 8.42401C147.544 7.91347 146.71 7.65819 145.59 7.65819C144.825 7.65819 144.108 7.84474 143.44 8.21783C142.772 8.57129 142.223 9.14074 141.791 9.92619C141.378 10.692 141.172 11.7033 141.172 12.96V13.5491C141.172 14.8844 141.378 15.9644 141.791 16.7891C142.223 17.6138 142.772 18.2127 143.44 18.5858C144.108 18.9589 144.825 19.1455 145.59 19.1455C146.553 19.1455 147.358 18.9098 148.006 18.4386C148.673 17.9673 149.144 17.3193 149.419 16.4946H152.07C151.835 17.5156 151.412 18.4091 150.804 19.1749C150.195 19.9211 149.449 20.5004 148.565 20.9127C147.682 21.3055 146.69 21.5018 145.59 21.5018Z" fill="white"/>
<path d="M128.946 21.5018C127.631 21.5018 126.393 21.2171 125.235 20.6476C124.096 20.0782 123.173 19.2044 122.466 18.0262C121.779 16.848 121.435 15.3556 121.435 13.5491V12.96C121.435 11.232 121.769 9.80838 122.437 8.6891C123.104 7.55019 123.988 6.70583 125.088 6.15601C126.187 5.58656 127.375 5.30183 128.652 5.30183C130.949 5.30183 132.726 5.9302 133.983 7.18692C135.24 8.44365 135.868 10.2207 135.868 12.5182V14.1676H124.027C124.027 15.3851 124.273 16.3571 124.764 17.0836C125.274 17.8102 125.903 18.3404 126.649 18.6742C127.415 18.9884 128.18 19.1455 128.946 19.1455C130.124 19.1455 131.028 18.9491 131.656 18.5564C132.304 18.1636 132.765 17.6236 133.04 16.9364H135.573C135.259 18.4287 134.484 19.5676 133.247 20.3531C132.029 21.1189 130.596 21.5018 128.946 21.5018ZM128.799 7.65819C127.994 7.65819 127.228 7.81529 126.501 8.12947C125.775 8.42401 125.176 8.89528 124.705 9.54328C124.253 10.1913 124.027 11.0258 124.027 12.0469H133.423C133.404 10.9669 133.178 10.1127 132.746 9.48438C132.333 8.83638 131.784 8.37492 131.096 8.10001C130.409 7.80547 129.643 7.65819 128.799 7.65819Z" fill="white"/>
<path d="M118.032 21.3546C116.952 21.3546 116.068 21.1877 115.381 20.8538C114.713 20.5004 114.222 19.9604 113.908 19.2338C113.614 18.4876 113.466 17.5255 113.466 16.3473V0.589104H116.058V16.3473C116.058 17.3684 116.225 18.0655 116.559 18.4386C116.893 18.8116 117.482 18.9982 118.326 18.9982C118.542 18.9982 118.729 18.9982 118.886 18.9982C119.043 18.9786 119.2 18.9589 119.357 18.9393V21.2367C119.259 21.2564 119.122 21.276 118.945 21.2956C118.788 21.3153 118.621 21.3251 118.444 21.3251C118.287 21.3447 118.15 21.3546 118.032 21.3546Z" fill="white"/>
<path d="M95.931 21.2073V0.589104H109.186V3.00438H98.6997V9.39601H108.302V11.8113H98.6997V18.792H109.186V21.2073H95.931Z" fill="white"/>
<path d="M75.6524 21.5018C73.7673 21.5018 72.3534 20.9618 71.4109 19.8818C70.4684 18.8018 69.9971 17.1327 69.9971 14.8745V5.59636H72.5891V14.7273C72.5891 16.1804 72.8836 17.28 73.4727 18.0262C74.0815 18.7724 75.0633 19.1455 76.4182 19.1455C77.4 19.1455 78.2051 18.9295 78.8335 18.4975C79.4618 18.0655 79.9233 17.5156 80.2178 16.848C80.5124 16.1607 80.6596 15.4538 80.6596 14.7273V5.59636H83.2516V21.2073H80.8364V18.2618C80.4829 19.1258 79.8644 19.8818 78.9807 20.5298C78.0971 21.1778 76.9876 21.5018 75.6524 21.5018Z" fill="white"/>
<path d="M64.0947 21.3545C62.9951 21.3545 62.0918 21.1876 61.3849 20.8538C60.6976 20.52 60.1871 20.0193 59.8533 19.3516C59.5391 18.6644 59.382 17.8102 59.382 16.7891V7.89381H57.0256V5.59635H59.382V2.06181H61.974V5.59635H66.1565V7.89381H61.974V16.4945C61.974 17.3782 62.1605 18.0164 62.5336 18.4091C62.9067 18.8018 63.6235 18.9982 64.6838 18.9982C65.2729 18.9982 65.862 18.9687 66.4511 18.9098V21.2073C66.078 21.2465 65.7049 21.276 65.3318 21.2956C64.9587 21.3349 64.5464 21.3545 64.0947 21.3545Z" fill="white"/>
<path d="M46.4317 21.5018C45.2928 21.5018 44.3208 21.2956 43.5157 20.8833C42.7303 20.4513 42.1314 19.872 41.719 19.1455C41.3066 18.3993 41.1004 17.5647 41.1004 16.6418C41.1004 15.0906 41.5521 13.9713 42.4554 13.284C43.3783 12.5967 44.6939 12.2531 46.4023 12.2531H51.4684V11.1927C51.4684 9.85747 51.1641 8.93456 50.5554 8.42401C49.9663 7.91347 49.0728 7.65819 47.875 7.65819C46.7557 7.65819 45.9408 7.87419 45.4303 8.30619C44.9197 8.71856 44.635 9.18983 44.5761 9.72001H41.9841C42.043 8.87565 42.3277 8.12947 42.8383 7.48147C43.3488 6.81383 44.0459 6.28365 44.9295 5.89092C45.8132 5.49819 46.8441 5.30183 48.0223 5.30183C49.2594 5.30183 50.3295 5.49819 51.2328 5.89092C52.1361 6.26401 52.8332 6.86292 53.3241 7.68765C53.815 8.49274 54.0605 9.56292 54.0605 10.8982V17.2309C54.0605 18.0556 54.0605 18.7822 54.0605 19.4106C54.0801 20.0193 54.1292 20.6182 54.2077 21.2073H51.9397C51.8808 20.7556 51.8415 20.3335 51.8219 19.9407C51.8023 19.5284 51.7924 19.0669 51.7924 18.5564C51.3801 19.3811 50.7124 20.0782 49.7895 20.6476C48.8666 21.2171 47.7474 21.5018 46.4317 21.5018ZM46.9914 19.1455C47.8161 19.1455 48.5623 18.9982 49.2299 18.7036C49.9172 18.4091 50.4572 17.9771 50.8499 17.4076C51.2623 16.8382 51.4684 16.1411 51.4684 15.3164V14.256H46.8441C45.8819 14.256 45.1259 14.4524 44.5761 14.8451C44.0263 15.2182 43.7514 15.8171 43.7514 16.6418C43.7514 17.3684 44.0066 17.9673 44.5172 18.4386C45.0474 18.9098 45.8721 19.1455 46.9914 19.1455Z" fill="white"/>
<path d="M30.7945 21.2073V5.59638H33.2098V8.54183C33.4454 7.91347 33.7694 7.36365 34.1818 6.89238C34.5941 6.40147 35.0948 6.01856 35.6839 5.74365C36.2927 5.4491 36.9701 5.30183 37.7163 5.30183C38.109 5.30183 38.4232 5.32147 38.6588 5.36074C38.9141 5.40001 39.1399 5.4491 39.3363 5.50801V7.92328C39.081 7.8251 38.8258 7.75638 38.5705 7.7171C38.3348 7.67783 38.001 7.65819 37.569 7.65819C36.7836 7.65819 36.0767 7.84474 35.4483 8.21783C34.8199 8.59092 34.3192 9.11129 33.9461 9.77892C33.573 10.4269 33.3865 11.1927 33.3865 12.0764V21.2073H30.7945Z" fill="white"/>
<path d="M24.7453 21.3545C23.6456 21.3545 22.7424 21.1876 22.0355 20.8538C21.3482 20.52 20.8376 20.0193 20.5038 19.3516C20.1896 18.6644 20.0326 17.8102 20.0326 16.7891V7.89381H17.6762V5.59635H20.0326V2.06181H22.6246V5.59635H26.8071V7.89381H22.6246V16.4945C22.6246 17.3782 22.8111 18.0164 23.1842 18.4091C23.5573 18.8018 24.274 18.9982 25.3344 18.9982C25.9235 18.9982 26.5126 18.9687 27.1016 18.9098V21.2073C26.7286 21.2465 26.3555 21.276 25.9824 21.2956C25.6093 21.3349 25.1969 21.3545 24.7453 21.3545Z" fill="white"/>
<path d="M7.80545 21.5018C6.156 21.5018 4.78146 21.2465 3.68182 20.736C2.60182 20.2254 1.76727 19.5382 1.17818 18.6742C0.589091 17.7905 0.196364 16.8185 0 15.7582H2.76873C2.98473 16.6614 3.47564 17.4371 4.24146 18.0851C5.00727 18.7134 6.19527 19.0276 7.80545 19.0276C9.45491 19.0276 10.7018 18.7134 11.5462 18.0851C12.4102 17.4567 12.8422 16.6811 12.8422 15.7582C12.8422 14.9924 12.6655 14.3836 12.312 13.932C11.9585 13.4607 11.3695 13.068 10.5447 12.7538C9.73964 12.42 8.64 12.096 7.24582 11.7818C5.71418 11.448 4.45745 11.0553 3.47564 10.6036C2.49382 10.152 1.76727 9.54326 1.296 8.77744C0.824727 8.01162 0.589091 7.00035 0.589091 5.74362C0.589091 4.72253 0.873818 3.80944 1.44327 3.00435C2.03236 2.17962 2.86691 1.5218 3.94691 1.03089C5.02691 0.539986 6.31309 0.294533 7.80545 0.294533C9.27818 0.294533 10.5055 0.539986 11.4873 1.03089C12.4691 1.5218 13.2349 2.17962 13.7847 3.00435C14.3345 3.80944 14.6978 4.72253 14.8745 5.74362H12.1058C11.9095 4.9189 11.4873 4.22181 10.8393 3.65235C10.2109 3.06326 9.19964 2.76871 7.80545 2.76871C6.39164 2.76871 5.292 3.06326 4.50655 3.65235C3.74073 4.22181 3.35782 4.9189 3.35782 5.74362C3.35782 6.82362 3.76036 7.6189 4.56545 8.12944C5.37055 8.62035 6.65673 9.06217 8.424 9.4549C9.70036 9.72981 10.7902 10.044 11.6935 10.3974C12.6164 10.7509 13.3625 11.1731 13.932 11.664C14.5211 12.1353 14.9433 12.7047 15.1985 13.3724C15.4735 14.04 15.6109 14.8353 15.6109 15.7582C15.6109 16.8185 15.2967 17.7905 14.6684 18.6742C14.0596 19.5382 13.176 20.2254 12.0175 20.736C10.8589 21.2465 9.45491 21.5018 7.80545 21.5018Z" fill="white"/>
</svg>
